<?xml version="1.0" standalone="no"?>
<!DOCTYPE svg PUBLIC "-//W3C//DTD SVG 20010904//EN"
 "http://www.w3.org/TR/2001/REC-SVG-20010904/DTD/svg10.dtd">
<svg version="1.0" xmlns="http://www.w3.org/2000/svg"
 width="596.000000pt" height="596.000000pt" viewBox="0 0 596.000000 596.000000"
 preserveAspectRatio="xMidYMid meet">
<metadata>
Created by potrace 1.14, written by Peter Selinger 2001-2017
</metadata>
<g transform="translate(0.000000,596.000000) scale(0.100000,-0.100000)"
fill="#000000" stroke="none">
<path d="M3027 5484 c-3 -4 -30 -8 -59 -10 -29 -2 -76 -12 -105 -23 -28 -10
-54 -16 -57 -13 -3 3 -6 0 -6 -7 0 -7 -13 -17 -30 -22 -16 -6 -30 -15 -30 -20
0 -5 -7 -9 -15 -9 -8 0 -15 -5 -15 -11 0 -5 -4 -8 -9 -5 -5 3 -14 -1 -21 -9
-7 -8 -16 -12 -21 -9 -5 3 -9 1 -9 -4 0 -9 -50 -37 -62 -34 -5 1 -8 -2 -8 -6
0 -5 -18 -17 -40 -28 -22 -10 -40 -23 -40 -27 0 -5 -4 -6 -8 -3 -5 3 -19 -4
-31 -15 -12 -11 -26 -17 -31 -14 -6 3 -10 1 -10 -5 0 -6 -12 -16 -27 -23 -16
-6 -34 -17 -41 -24 -7 -7 -20 -13 -28 -13 -8 0 -14 -5 -14 -11 0 -5 -4 -7 -10
-4 -5 3 -10 2 -10 -4 0 -5 -10 -13 -22 -18 -13 -4 -61 -30 -108 -58 -47 -27
-87 -49 -90 -48 -3 1 -14 -7 -25 -17 -11 -11 -37 -26 -58 -35 -20 -8 -37 -20
-37 -26 0 -6 -7 -9 -15 -5 -8 3 -15 1 -15 -4 0 -6 -7 -10 -15 -10 -8 0 -15 -4
-15 -8 0 -4 -24 -20 -52 -35 -70 -37 -92 -50 -100 -62 -4 -5 -8 -6 -8 -1 0 5
-8 2 -17 -7 -10 -8 -24 -17 -32 -19 -8 -2 -23 -11 -33 -20 -10 -10 -25 -18
-33 -18 -8 0 -15 -5 -15 -11 0 -5 -5 -7 -10 -4 -5 3 -10 1 -10 -4 0 -6 -4 -11
-10 -11 -15 0 -80 -47 -73 -54 4 -3 17 -6 30 -6 13 0 23 -4 23 -8 0 -4 17 -13
38 -19 54 -16 156 -55 162 -62 13 -15 58 -10 83 9 15 12 31 18 37 15 5 -3 10
-2 10 3 0 5 12 15 28 23 15 7 38 21 51 31 13 10 27 15 32 12 5 -3 9 2 9 11 0
9 4 14 9 11 5 -3 20 4 35 15 14 11 26 17 26 12 0 -4 7 1 15 11 8 11 15 16 15
12 0 -5 16 4 35 18 19 15 39 25 43 22 5 -3 16 4 25 15 9 10 24 19 32 19 8 0
15 4 15 8 0 5 23 19 50 32 28 13 50 27 50 32 0 5 5 6 10 3 6 -3 10 -1 10 4 0
6 7 11 15 11 9 0 25 9 37 20 12 10 25 17 30 14 4 -3 8 0 8 5 0 6 6 11 13 11 7
0 24 10 37 23 14 12 26 20 27 17 1 -3 10 2 20 10 10 9 20 16 23 16 22 4 50 17
50 24 0 5 10 12 23 16 12 4 37 17 56 30 19 13 38 21 43 18 4 -3 8 2 8 11 0 9
4 14 9 10 5 -3 17 2 25 11 9 8 16 12 16 8 0 -4 8 0 18 9 10 10 22 14 25 10 4
-3 7 -1 7 5 0 7 9 12 19 12 11 0 22 4 25 9 12 18 142 12 210 -10 36 -12 66
-26 66 -30 0 -5 8 -9 18 -9 11 0 27 -9 37 -20 10 -11 24 -20 32 -20 7 0 13 -4
13 -9 0 -5 11 -12 24 -15 14 -3 31 -12 38 -19 7 -6 30 -20 51 -29 20 -10 37
-23 37 -28 0 -6 5 -8 10 -5 6 3 10 1 10 -5 0 -6 4 -9 9 -5 5 3 12 1 15 -4 3
-4 30 -21 61 -36 30 -16 55 -32 55 -37 0 -5 5 -6 10 -3 6 3 10 1 10 -4 0 -6 9
-11 20 -11 11 0 20 -4 20 -8 0 -4 26 -21 58 -37 31 -17 59 -33 62 -36 3 -4 24
-16 48 -28 23 -12 42 -27 42 -33 0 -6 3 -9 6 -5 7 6 117 -52 122 -65 2 -4 12
-8 22 -8 10 0 21 -7 24 -16 3 -8 10 -13 15 -9 6 3 14 -3 20 -12 5 -10 12 -16
16 -14 9 5 105 -49 105 -59 0 -9 18 -6 55 11 26 11 68 26 78 28 4 0 21 8 37
16 17 9 35 13 40 10 6 -3 10 -2 10 4 0 5 23 17 51 26 50 17 50 17 27 33 -13 9
-25 18 -28 21 -3 3 -11 7 -19 9 -8 2 -27 12 -42 23 -15 10 -32 19 -38 19 -6 0
-11 4 -11 9 0 5 -11 12 -24 15 -14 3 -31 12 -38 19 -7 7 -24 18 -38 25 -14 7
-43 23 -65 37 -22 13 -47 27 -55 31 -8 4 -31 17 -50 29 -42 26 -120 70 -175
99 -22 12 -44 27 -48 34 -4 6 -13 12 -19 12 -6 0 -44 20 -86 45 -41 25 -78 45
-81 45 -4 0 -17 9 -29 20 -12 11 -24 20 -27 20 -19 -1 -25 2 -39 16 -9 9 -23
17 -32 18 -9 1 -19 7 -22 12 -4 6 -22 16 -39 23 -18 8 -33 16 -33 20 0 4 -16
13 -35 20 -19 7 -35 16 -35 20 0 4 -16 13 -35 20 -19 7 -35 16 -35 21 0 4 -12
13 -27 19 -16 6 -37 16 -48 23 -54 34 -71 42 -77 40 -5 -1 -8 2 -8 6 0 5 -6 9
-12 10 -13 1 -48 9 -58 12 -3 1 -9 2 -14 1 -4 -1 -14 3 -20 9 -7 5 -16 7 -19
4z"/>
<path d="M3375 4930 c3 -5 1 -10 -4 -10 -6 0 -10 -6 -8 -12 1 -7 -4 -12 -10
-10 -7 1 -13 -5 -13 -13 0 -29 -19 -57 -32 -48 -8 4 -1 -22 11 -42 18 -32 3
-32 -52 -1 -34 18 -89 49 -121 67 -53 29 -69 33 -135 33 -85 0 -131 -6 -131
-15 0 -4 -17 -15 -37 -24 -21 -10 -61 -33 -90 -51 -28 -18 -54 -30 -57 -27 -3
4 -6 0 -6 -7 0 -12 -2 -12 -12 -1 -10 11 -10 14 -1 18 10 4 10 7 0 18 -7 7
-16 10 -21 7 -5 -3 -6 0 -2 6 3 6 1 14 -5 17 -5 4 -8 13 -5 21 3 7 0 16 -6 20
-7 5 -8 2 -3 -6 5 -9 4 -11 -3 -6 -7 4 -12 14 -12 22 0 8 -4 14 -10 14 -5 0
-10 -7 -10 -16 0 -14 -2 -15 -17 -3 -15 13 -15 12 -5 -8 9 -15 9 -24 1 -28 -6
-4 -8 -14 -5 -22 5 -11 2 -13 -11 -9 -14 5 -15 4 -7 -4 13 -13 6 -53 -7 -44
-5 3 -9 0 -9 -5 0 -6 6 -11 13 -11 7 0 5 -5 -5 -11 -11 -6 -15 -16 -11 -26 4
-10 2 -14 -4 -10 -7 4 -9 0 -7 -10 5 -18 1 -21 -126 -93 -30 -17 -77 -44 -105
-61 -27 -16 -59 -34 -70 -39 -11 -6 -33 -19 -50 -30 -16 -11 -44 -26 -61 -34
-17 -8 -35 -19 -38 -25 -4 -6 -12 -9 -17 -6 -5 4 -9 2 -9 -3 0 -4 -21 -19 -47
-32 -27 -12 -56 -30 -66 -39 -16 -13 -19 -13 -27 -1 -6 8 -10 10 -10 4 0 -6
-7 -11 -15 -11 -8 0 -15 6 -15 14 0 7 -5 13 -11 13 -5 0 -7 -6 -3 -12 6 -10 4
-10 -7 0 -7 6 -21 12 -31 12 -10 0 -18 4 -18 9 0 5 -12 11 -27 13 -21 2 -27 8
-26 23 1 11 0 14 -3 8 -3 -7 -15 -13 -26 -13 -15 0 -18 4 -13 18 5 13 4 14 -6
5 -10 -10 -16 -9 -31 4 -10 9 -18 11 -18 5 0 -6 -7 -9 -15 -6 -8 4 -15 10 -15
16 0 5 6 6 13 2 6 -4 8 -3 4 1 -11 13 -38 15 -31 3 4 -5 -4 -4 -17 3 -13 7
-27 12 -31 11 -5 -1 -8 2 -8 6 0 4 -8 8 -17 9 -37 3 -74 23 -67 35 5 10 4 10
-6 1 -13 -12 -52 0 -78 24 -17 17 -25 17 -17 1 4 -7 0 -5 -8 5 -11 14 -16 15
-20 5 -4 -10 -6 -10 -6 0 -1 6 -10 12 -21 12 -11 0 -20 5 -20 11 0 5 -4 7 -10
4 -5 -3 -16 -3 -22 2 -7 4 -17 8 -23 8 -29 2 -75 18 -75 26 0 6 -8 9 -17 7
-11 -2 -17 2 -15 10 2 9 -3 10 -15 4 -23 -12 -43 -5 -43 16 0 14 -2 14 -9 3
-11 -18 -45 -6 -35 11 6 10 4 10 -8 0 -13 -10 -18 -10 -24 -1 -5 8 -3 9 6 4 9
-5 11 -4 6 4 -6 9 -11 9 -22 0 -11 -9 -14 -9 -14 1 0 9 -4 9 -17 -1 -11 -10
-14 -10 -9 -1 4 7 2 12 -4 12 -6 0 -8 5 -4 13 5 7 1 7 -10 -2 -14 -12 -19 -12
-25 -2 -4 6 -12 11 -17 10 -23 -4 -35 2 -28 14 5 8 2 8 -9 -2 -14 -11 -17 -11
-17 0 0 11 -2 11 -10 -1 -6 -10 -10 -11 -10 -2 0 7 -14 12 -35 12 -21 0 -35 5
-35 13 0 8 -3 8 -9 -2 -7 -11 -13 -12 -23 -4 -7 6 -20 11 -28 11 -22 1 -44 7
-55 14 -6 4 -17 3 -25 -2 -8 -5 -22 -4 -34 2 -12 6 -21 11 -21 10 0 0 -13 -5
-29 -11 -25 -10 -28 -9 -22 6 6 14 4 14 -15 -3 -12 -10 -20 -14 -16 -8 3 6 0
11 -8 11 -8 0 -11 -5 -8 -10 4 -6 -5 -8 -21 -5 -19 4 -26 1 -26 -11 0 -14 -2
-14 -10 -1 -6 10 -10 11 -10 3 0 -7 -5 -13 -11 -13 -19 0 -70 -60 -63 -72 4
-7 3 -8 -4 -4 -7 4 -12 1 -12 -8 0 -9 -3 -16 -8 -16 -9 0 -9 -107 1 -116 13
-13 7 -23 -10 -18 -15 5 -15 4 -4 -4 8 -6 16 -19 17 -29 1 -10 3 -33 5 -50 2
-18 6 -33 9 -33 9 0 6 -32 -5 -49 -5 -10 -4 -12 3 -7 7 4 13 1 13 -6 1 -7 2
-20 3 -28 0 -8 7 -14 14 -12 8 1 11 -2 7 -8 -3 -6 -11 -8 -16 -5 -5 3 -6 -1
-3 -9 3 -9 10 -14 14 -11 5 3 6 -3 3 -14 -3 -10 0 -22 6 -25 8 -5 8 -13 0 -28
-8 -15 -8 -19 0 -14 10 7 15 -5 12 -31 -1 -6 3 -14 9 -18 8 -5 7 -12 -2 -23
-11 -13 -11 -14 1 -8 10 7 12 4 7 -12 -4 -11 -2 -23 3 -26 6 -4 8 -13 4 -21
-3 -8 0 -15 7 -15 10 0 10 -3 1 -14 -9 -11 -9 -16 0 -22 8 -5 10 -3 5 7 -4 8
0 5 8 -5 18 -22 22 -51 6 -41 -16 10 -11 -1 7 -16 14 -12 16 -12 8 0 -6 10 -4
12 4 7 7 -5 10 -14 7 -22 -3 -8 -1 -14 5 -14 6 0 9 -6 6 -14 -3 -8 9 -27 28
-45 21 -19 32 -37 29 -46 -4 -10 0 -13 16 -10 19 4 20 2 8 -12 -8 -11 -9 -14
-1 -10 11 7 40 -29 35 -45 -1 -4 6 -4 15 -1 11 4 14 3 9 -5 -4 -7 -2 -12 3
-12 6 0 11 -7 11 -16 0 -8 5 -12 10 -9 6 3 10 -1 10 -10 0 -9 4 -14 9 -10 6 3
8 -3 6 -14 -2 -14 1 -18 11 -14 9 3 14 -1 14 -12 0 -9 5 -13 10 -10 6 3 10 -1
10 -9 0 -9 4 -16 8 -16 5 0 17 -7 28 -16 10 -8 12 -13 4 -9 -10 4 -9 2 2 -8
10 -8 14 -17 10 -21 -4 -4 -2 -7 3 -6 21 5 36 0 30 -10 -3 -5 -1 -10 4 -10 6
0 11 -8 11 -17 0 -15 2 -16 10 -3 8 13 10 12 10 -3 0 -10 5 -15 10 -12 10 6
15 -9 10 -30 -1 -5 2 -7 6 -3 4 4 13 0 21 -10 10 -12 13 -12 8 -2 -3 8 0 7 7
-4 17 -25 46 -57 33 -36 -9 13 -8 13 8 1 9 -7 17 -19 17 -27 0 -7 5 -16 12
-20 7 -4 8 -3 4 4 -4 8 -2 10 8 6 8 -3 13 -14 11 -26 -3 -11 -2 -18 2 -14 3 3
13 0 21 -7 13 -10 15 -9 8 3 -4 9 -2 8 7 -2 8 -10 17 -14 21 -10 4 4 7 3 6 -3
-5 -21 0 -36 10 -30 6 3 10 2 10 -3 0 -5 10 -12 21 -15 14 -4 20 -11 16 -21
-4 -10 -1 -13 9 -9 9 3 14 -1 15 -13 0 -11 3 -14 6 -7 3 10 8 10 19 -1 16 -17
19 -30 4 -21 -6 3 -7 -1 -3 -10 4 -12 8 -13 13 -5 4 7 13 9 19 6 6 -4 9 -12 6
-17 -3 -5 2 -6 11 -2 12 4 15 3 10 -5 -4 -7 -1 -12 9 -12 9 0 13 -4 10 -10 -3
-5 3 -10 14 -10 12 0 21 -7 21 -16 0 -8 5 -12 10 -9 6 3 10 2 10 -4 0 -5 9
-13 20 -16 41 -13 43 -33 46 -455 1 -223 4 -420 7 -439 4 -18 19 -54 34 -80
15 -25 26 -49 25 -53 -1 -5 5 -8 13 -8 8 0 15 -4 15 -9 0 -9 96 -71 111 -71 5
0 9 -4 9 -10 0 -5 4 -10 9 -10 6 0 36 -15 68 -34 32 -19 61 -33 64 -33 3 1 13
-6 23 -16 10 -9 22 -15 27 -12 5 4 9 2 9 -4 0 -5 12 -16 27 -24 16 -7 46 -24
68 -37 22 -13 65 -37 95 -53 30 -17 78 -45 105 -62 28 -17 57 -35 65 -39 8 -3
33 -17 55 -31 22 -13 48 -27 58 -31 9 -3 17 -10 17 -15 0 -5 6 -9 14 -9 8 0
22 -7 30 -16 9 -8 16 -13 16 -9 0 3 12 -2 28 -12 32 -21 32 -21 190 -112 68
-39 127 -71 133 -71 5 0 9 -4 9 -9 0 -5 8 -11 18 -14 9 -4 35 -17 57 -30 22
-14 77 -46 123 -71 45 -26 82 -54 82 -62 0 -9 -5 -12 -12 -8 -7 4 -4 -3 7 -16
11 -13 15 -21 9 -17 -6 3 -11 0 -11 -8 0 -8 4 -12 8 -9 4 2 10 0 14 -6 3 -5 1
-10 -5 -10 -6 0 -8 -5 -5 -10 4 -6 12 -7 18 -3 8 4 7 1 -1 -9 -9 -12 -10 -18
-2 -23 8 -5 7 -11 -2 -23 -7 -9 -8 -13 -2 -9 16 9 26 -34 12 -50 -9 -11 -7
-12 8 -7 10 4 16 4 12 -1 -4 -4 -2 -15 5 -23 10 -13 9 -14 -2 -8 -10 7 -12 3
-6 -15 4 -13 13 -30 19 -38 8 -11 8 -13 -1 -7 -7 4 -13 2 -13 -3 0 -6 5 -11
10 -11 6 0 10 -9 10 -20 0 -11 5 -20 10 -20 10 0 14 21 11 49 -2 7 2 10 7 7
12 -7 10 13 -2 33 -6 10 -5 12 2 7 8 -5 12 1 12 14 0 12 5 18 10 15 6 -3 10
-2 10 4 0 5 -5 13 -11 17 -8 5 -6 10 5 16 13 7 14 13 6 23 -8 9 -7 14 4 18 9
4 13 17 10 39 -3 38 4 70 15 64 4 -3 8 1 8 9 0 8 -4 12 -9 9 -12 -7 4 30 16
38 7 5 6 8 -4 8 -8 0 12 14 45 31 33 17 80 43 105 59 38 23 229 134 347 201
18 11 50 29 71 41 20 12 60 34 87 50 59 34 81 47 116 70 14 10 29 15 33 11 3
-3 6 -1 6 5 0 7 6 12 13 12 7 0 23 9 35 20 12 12 22 18 22 16 0 -3 24 9 53 26
28 17 72 42 97 56 25 13 50 28 55 32 6 5 37 23 70 40 33 18 67 38 75 45 8 7
22 15 30 18 8 4 38 20 65 36 28 16 67 39 88 50 102 56 181 165 177 244 -1 17
-1 34 0 37 5 16 4 230 -2 230 -3 0 -4 14 -1 32 9 57 9 163 1 181 -5 10 -5 17
0 17 5 0 8 15 6 33 -5 41 -3 172 5 290 0 9 8 17 16 17 8 0 12 6 9 14 -7 18 12
30 22 15 5 -8 3 -9 -6 -4 -9 5 -11 4 -6 -4 4 -6 12 -9 17 -5 5 3 6 10 3 16 -5
8 -1 9 10 5 9 -4 15 -3 12 2 -3 4 1 17 9 27 15 18 15 18 9 -1 -4 -14 0 -11 12
8 10 15 25 27 32 27 7 0 10 5 7 10 -3 6 0 10 8 10 8 0 22 10 31 23 14 20 15
20 10 2 -3 -12 1 -9 11 8 12 21 22 27 38 23 12 -3 16 -3 10 0 -7 3 -13 13 -13
21 0 11 3 13 13 5 9 -8 17 -8 27 0 12 8 11 8 -5 3 -16 -5 -14 0 10 25 16 17
35 28 43 25 9 -3 12 0 9 9 -5 13 26 33 44 28 4 -1 6 6 5 16 0 10 6 16 16 16
10 -1 17 1 16 5 -2 20 4 30 23 36 13 5 18 12 14 22 -5 14 -3 14 12 2 9 -8 14
-9 10 -3 -8 14 31 57 44 48 5 -3 9 -2 8 3 -4 21 2 33 17 33 8 0 12 5 9 10 -9
14 8 12 26 -2 12 -11 12 -11 2 2 -15 17 -17 34 -3 25 6 -3 10 -1 10 5 0 6 4 8
10 5 6 -4 7 1 3 11 -4 11 -3 15 5 10 6 -3 13 3 17 14 6 18 17 25 38 21 5 -1 6
3 2 9 -7 11 19 53 27 44 4 -3 9 4 13 16 5 17 9 19 21 9 12 -10 13 -9 8 4 -7
19 13 60 27 52 5 -4 9 -1 9 5 0 6 6 8 13 4 9 -5 9 -4 0 6 -15 16 19 56 39 45
10 -6 10 -5 1 5 -9 10 -7 17 7 33 11 11 17 24 14 29 -3 5 0 7 8 6 8 -2 12 4
10 16 -2 11 1 15 7 11 6 -3 11 1 11 10 0 9 4 14 9 11 5 -4 8 2 7 11 -2 10 4
24 13 31 9 8 11 11 4 7 -8 -4 -8 3 2 22 8 15 15 34 15 42 0 11 3 11 18 0 15
-12 15 -12 -1 7 -16 20 -17 22 -1 28 13 5 14 9 5 20 -9 11 -9 15 1 19 9 4 9 6
-2 7 -10 0 -6 6 10 16 14 9 17 13 6 10 -14 -5 -17 -3 -11 11 4 10 8 27 10 38
1 11 3 24 4 28 0 5 6 5 12 1 8 -4 8 0 0 15 -7 13 -8 21 -2 21 6 0 8 7 4 15 -3
9 3 23 13 31 11 9 13 13 7 9 -7 -3 -13 -1 -13 4 0 6 5 11 12 11 9 0 9 3 0 12
-9 9 -7 14 5 24 15 10 15 14 4 28 -7 9 -11 17 -7 17 3 1 10 2 15 3 5 0 13 5
18 10 4 5 3 6 -4 2 -19 -10 -25 11 -7 28 10 11 11 16 3 16 -7 0 -5 8 7 22 11
14 13 18 3 11 -14 -11 -15 -7 -13 30 3 60 3 59 14 52 6 -3 7 1 4 9 -3 9 -11
16 -16 16 -6 0 -4 8 3 17 10 11 10 14 2 9 -9 -5 -13 2 -14 26 -1 18 -1 37 0
41 1 5 -3 6 -8 3 -12 -8 -43 23 -35 35 3 5 2 9 -3 8 -26 -4 -44 2 -37 14 5 7
0 6 -11 -3 -10 -8 -16 -10 -13 -5 4 6 -2 17 -14 24 -11 7 -17 8 -14 3 3 -5 -6
-9 -19 -9 -16 0 -25 5 -25 16 0 13 -2 13 -9 2 -5 -7 -14 -10 -20 -6 -7 4 -18
2 -26 -5 -10 -8 -15 -8 -20 1 -6 8 -10 7 -16 -2 -6 -10 -9 -11 -9 -1 0 6 -5
12 -11 12 -5 0 -8 -4 -5 -8 3 -5 -1 -9 -9 -9 -8 0 -12 3 -10 7 2 4 -2 7 -10 7
-8 0 -12 -4 -9 -9 8 -13 -11 -9 -25 5 -10 10 -11 9 -6 -4 5 -14 0 -16 -29 -12
-25 2 -36 -1 -36 -9 0 -9 -3 -8 -10 2 -8 13 -11 13 -22 1 -11 -11 -11 -13 1
-6 10 6 12 4 7 -4 -6 -9 -13 -8 -27 5 -19 17 -20 17 -13 -1 5 -12 4 -16 -4
-11 -6 3 -14 2 -17 -4 -5 -8 -12 -7 -23 2 -13 11 -14 11 -7 -1 6 -11 3 -13
-13 -9 -12 4 -22 2 -22 -3 0 -5 -5 -9 -11 -9 -5 0 -7 6 -3 13 4 6 -1 4 -12 -5
-16 -14 -23 -15 -33 -5 -10 9 -11 8 -5 -8 4 -11 4 -17 -1 -13 -4 4 -15 2 -23
-5 -11 -8 -14 -8 -9 0 4 6 2 15 -5 19 -7 4 -10 4 -6 -1 13 -14 -13 -37 -27
-25 -9 7 -16 6 -25 -5 -10 -12 -16 -13 -28 -3 -13 11 -15 10 -9 -5 6 -15 4
-16 -13 -7 -16 8 -18 8 -14 -4 4 -11 0 -14 -15 -11 -12 2 -21 1 -21 -3 0 -4
-9 -9 -20 -10 -44 -4 -48 -6 -42 -20 4 -11 2 -13 -9 -6 -18 11 -39 14 -36 6 1
-4 -2 -7 -8 -7 -5 0 -9 4 -7 8 1 5 -2 6 -8 2 -6 -3 -8 -10 -5 -15 3 -4 -2 -11
-11 -14 -10 -4 -13 -2 -9 7 4 6 1 5 -7 -4 -17 -20 -52 -34 -42 -16 6 8 3 8 -9
-1 -9 -8 -20 -11 -25 -8 -6 3 -15 -1 -22 -10 -7 -8 -19 -13 -27 -10 -8 3 -12
2 -9 -3 3 -5 -1 -12 -10 -15 -10 -4 -13 -2 -8 6 4 7 -6 2 -23 -10 -20 -14 -34
-18 -41 -11 -7 5 -10 6 -7 3 7 -10 -45 -35 -56 -28 -5 3 -9 1 -9 -4 0 -17 -51
-24 -68 -10 -15 11 -15 11 -4 -4 14 -17 1 -35 -18 -23 -5 3 -10 1 -10 -6 0 -8
-4 -8 -15 1 -13 11 -14 10 -9 -4 7 -19 -7 -21 -25 -3 -10 10 -11 8 -5 -7 6
-16 4 -18 -10 -13 -9 4 -15 3 -12 -2 3 -5 -3 -11 -15 -14 -17 -5 -18 -3 -7 11
7 9 1 7 -13 -5 -14 -13 -31 -23 -37 -23 -7 0 -12 -6 -12 -12 0 -9 -3 -8 -10 2
-8 13 -10 12 -15 -1 -8 -22 -53 -18 -98 9 -21 12 -42 22 -48 22 -5 0 -9 5 -9
10 0 6 -4 10 -10 10 -5 0 -33 14 -62 31 -50 30 -66 39 -153 89 -19 11 -50 28
-67 39 -18 10 -53 30 -78 45 -25 14 -60 34 -77 43 -18 9 -33 20 -33 25 0 4 -7
8 -15 8 -13 0 -16 4 -15 25 0 3 -7 19 -16 36 -8 17 -11 28 -5 25 6 -4 11 -3
11 2 0 6 -7 12 -15 16 -8 3 -15 10 -15 16 0 6 4 9 9 6 11 -7 8 21 -4 31 -4 5
-4 1 0 -7 8 -13 7 -13 -9 -1 -13 11 -14 16 -4 22 11 7 11 9 0 9 -7 0 -11 4 -7
9 3 5 -2 16 -10 24 -8 9 -15 25 -15 36 0 12 -5 21 -11 21 -5 0 -7 -4 -4 -10z
m-2911 -1096 c5 -14 4 -15 -9 -4 -17 14 -19 20 -6 20 5 0 12 -7 15 -16z"/>
<path d="M4995 3240 c-3 -5 -1 -10 4 -10 6 0 11 5 11 10 0 6 -2 10 -4 10 -3 0
-8 -4 -11 -10z"/>
<path d="M802 3107 c-1 -45 -2 -86 -2 -92 -1 -5 1 -30 3 -55 2 -25 -1 -51 -6
-57 -5 -7 -6 -13 -1 -13 11 0 11 -251 0 -268 -4 -7 -4 -12 1 -12 10 0 9 -292
-1 -308 -4 -7 -4 -12 1 -12 6 0 8 -210 3 -305 -3 -41 11 -130 21 -136 6 -4 9
-16 6 -28 -3 -11 1 -25 9 -32 8 -6 14 -16 14 -21 0 -5 9 -18 20 -30 11 -12 20
-28 20 -35 0 -8 5 -11 10 -8 6 3 10 -1 10 -9 0 -9 4 -16 9 -16 6 0 23 -12 38
-26 15 -15 40 -31 55 -36 16 -6 25 -14 22 -19 -3 -5 -2 -8 3 -7 13 4 73 -23
73 -34 0 -5 5 -6 10 -3 6 3 10 1 10 -4 0 -6 7 -11 15 -11 7 0 18 -7 23 -16 5
-9 11 -15 13 -13 9 5 49 -13 49 -22 0 -6 5 -7 10 -4 5 3 10 1 10 -5 0 -6 5 -8
10 -5 5 3 10 1 10 -4 0 -6 7 -11 15 -11 8 0 15 -4 15 -9 0 -5 8 -11 18 -14 9
-3 40 -19 67 -35 28 -16 73 -42 100 -57 28 -15 55 -31 60 -35 6 -4 27 -17 48
-29 96 -54 114 -64 137 -80 14 -10 42 -25 63 -35 20 -9 37 -21 37 -27 0 -6 5
-7 11 -4 6 4 20 -2 32 -13 12 -10 36 -25 54 -33 17 -7 29 -17 27 -21 -3 -4 4
-8 15 -8 12 0 29 -8 39 -18 10 -9 23 -18 28 -19 24 -4 93 -51 87 -58 -5 -4 -3
-6 2 -3 6 3 24 -3 40 -13 17 -11 42 -24 57 -30 16 -6 25 -15 22 -20 -3 -5 2
-6 10 -3 9 3 16 2 16 -4 0 -5 8 -12 18 -16 21 -7 76 -39 97 -56 8 -7 15 -9 15
-4 0 5 5 1 11 -8 5 -10 16 -15 24 -12 9 4 15 0 15 -10 0 -9 3 -15 8 -15 17 3
31 -2 44 -14 7 -7 39 -26 70 -42 32 -17 58 -33 58 -37 0 -5 9 -8 20 -8 11 0
23 -7 26 -15 4 -8 10 -12 15 -9 5 3 12 -2 15 -10 3 -9 10 -14 14 -11 5 3 15
-1 23 -9 8 -8 17 -12 21 -9 3 4 6 1 6 -6 0 -7 5 -9 10 -6 6 3 10 3 10 -2 0 -8
47 -33 60 -33 4 0 5 13 2 30 -2 16 -9 30 -14 30 -6 0 -6 6 1 14 9 10 9 16 1
21 -6 4 -9 13 -6 21 3 8 1 14 -5 14 -5 0 -7 11 -5 25 3 13 1 27 -3 29 -4 3
-14 37 -21 75 -10 53 -18 72 -32 76 -10 4 -18 11 -18 16 0 6 -4 8 -9 4 -5 -3
-15 0 -23 7 -7 7 -33 24 -58 37 -25 14 -48 30 -53 37 -4 7 -14 11 -22 8 -8 -4
-15 -1 -15 5 0 6 -7 11 -15 11 -8 0 -15 5 -15 10 0 6 -5 10 -11 10 -6 0 -25
10 -42 22 -18 13 -33 22 -34 21 -2 -2 -18 7 -37 18 -20 11 -38 20 -42 19 -4
-1 -10 3 -13 8 -3 5 -22 19 -42 30 -20 11 -47 26 -60 34 -13 7 -32 19 -41 27
-10 8 -18 10 -18 5 0 -5 -4 -4 -8 2 -8 12 -100 67 -144 86 -16 7 -28 16 -28
20 0 4 -6 8 -13 8 -7 0 -22 8 -33 18 -11 9 -26 18 -34 20 -7 2 -26 12 -41 23
-15 10 -31 19 -37 19 -5 0 -19 9 -32 20 -12 11 -27 17 -31 14 -5 -3 -9 -1 -9
3 0 5 -17 17 -37 28 -21 11 -40 22 -43 25 -3 3 -31 19 -62 35 -32 17 -58 34
-58 38 0 5 -4 5 -10 2 -5 -3 -10 -3 -10 2 0 4 -18 17 -40 27 -22 11 -40 23
-40 28 0 4 -3 7 -7 6 -15 -3 -82 35 -77 44 3 5 2 8 -3 7 -13 -3 -73 22 -73 30
0 4 -16 13 -35 20 -19 7 -35 17 -35 22 0 5 -6 9 -14 9 -7 0 -25 11 -40 25 -15
14 -31 23 -36 20 -5 -3 -11 4 -15 15 -3 11 -11 20 -16 20 -5 0 -9 7 -9 15 0 8
-4 15 -9 15 -20 0 -58 123 -60 194 -1 39 -3 88 -4 109 -1 20 1 37 6 37 4 0 5
5 2 10 -8 13 -10 374 -2 387 4 6 4 13 0 16 -3 4 -5 85 -5 182 0 99 -4 175 -9
175 -5 0 -17 8 -28 18 -48 45 -95 82 -103 82 -5 0 -6 5 -3 10 3 6 -1 10 -10
10 -9 0 -13 5 -10 10 4 6 3 9 -2 8 -11 -4 -54 27 -48 34 3 3 -5 10 -18 15
l-24 11 -1 -81z"/>
<path d="M5128 3137 c-32 -29 -69 -61 -83 -72 -13 -11 -43 -36 -65 -55 l-40
-35 -3 -490 c-1 -269 -6 -500 -9 -512 -8 -25 -37 -81 -53 -99 -5 -6 -17 -21
-25 -33 -14 -20 -106 -85 -122 -86 -4 0 -17 -8 -28 -18 -11 -9 -27 -17 -35
-17 -8 0 -15 -4 -15 -10 0 -5 -11 -12 -25 -16 -14 -3 -25 -9 -25 -13 0 -3 -9
-12 -21 -19 -17 -11 -20 -11 -14 0 3 7 0 5 -9 -6 -8 -10 -20 -15 -27 -10 -8 4
-10 3 -5 -4 4 -7 1 -12 -8 -12 -8 0 -16 -3 -18 -7 -3 -8 -50 -36 -118 -70 -19
-10 -39 -22 -45 -26 -26 -20 -125 -75 -125 -69 0 4 -4 1 -9 -6 -4 -7 -16 -14
-25 -16 -10 -1 -21 -7 -24 -13 -4 -6 -42 -28 -84 -51 -42 -22 -74 -43 -71 -46
4 -3 -1 -6 -11 -6 -10 0 -24 -7 -33 -15 -8 -8 -19 -13 -24 -10 -5 4 -9 1 -9
-4 0 -6 -15 -17 -34 -25 -18 -8 -37 -19 -40 -25 -4 -6 -11 -9 -16 -6 -4 3 -11
-2 -14 -11 -3 -8 -10 -12 -16 -9 -5 3 -10 1 -10 -5 0 -6 -4 -9 -9 -6 -5 3 -14
-1 -21 -9 -7 -8 -16 -12 -21 -9 -5 3 -9 1 -9 -4 0 -5 -17 -17 -37 -28 -21 -10
-44 -25 -51 -31 -7 -7 -22 -13 -33 -13 -10 0 -19 -4 -19 -10 0 -5 -24 -22 -52
-36 -29 -15 -54 -30 -56 -35 -2 -5 -8 -9 -14 -9 -5 0 -36 -15 -68 -34 -32 -19
-61 -32 -64 -29 -3 4 -6 1 -6 -6 0 -7 -13 -17 -30 -22 -16 -6 -30 -14 -30 -19
0 -7 -37 -23 -51 -22 -6 1 -33 -118 -30 -135 1 -7 -2 -13 -6 -13 -5 0 -9 -13
-9 -30 -1 -16 -5 -37 -9 -47 -4 -10 -9 -29 -10 -43 -3 -34 -9 -54 -17 -60 -4
-3 -3 -11 1 -19 6 -10 11 -9 24 3 8 9 20 16 26 16 6 0 11 3 11 8 0 4 9 13 21
20 17 11 20 11 14 0 -4 -7 5 -1 18 14 14 15 37 30 51 34 14 3 26 11 26 16 0 5
6 8 12 6 7 -3 21 4 32 14 11 10 26 18 33 18 7 0 13 4 13 8 0 5 16 14 35 22 19
8 35 17 35 21 0 4 16 13 35 20 19 7 35 17 35 21 0 4 6 8 14 8 8 0 16 3 18 8 6
14 85 52 93 44 5 -4 5 -2 2 4 -3 6 19 23 51 40 31 16 59 32 60 37 2 4 8 7 14
7 6 0 26 11 44 25 18 14 39 25 48 25 8 0 18 5 22 11 3 6 21 17 38 25 49 23
120 66 128 78 4 6 8 7 8 3 0 -5 13 1 29 12 16 12 34 21 40 21 6 0 11 5 11 10
0 6 4 10 10 10 5 0 50 24 100 54 49 30 90 51 90 48 0 -4 4 -2 8 3 9 15 105 70
115 67 4 -1 7 2 7 8 0 5 7 10 15 10 8 0 15 4 15 10 0 5 8 7 18 3 9 -3 14 -3
10 2 -8 8 28 31 95 62 20 10 37 21 37 25 0 5 6 8 14 8 8 0 21 6 28 13 7 6 31
21 53 32 22 11 46 26 53 33 7 6 18 12 23 12 6 0 17 7 26 15 8 8 19 13 24 10 5
-4 9 -2 9 4 0 5 20 19 45 31 25 12 45 26 45 31 0 6 4 8 9 4 6 -3 15 4 21 16 7
11 14 18 17 15 7 -6 73 78 73 93 0 6 4 11 8 11 21 0 45 118 47 225 0 61 4 116
8 123 5 6 5 12 0 12 -10 0 -10 71 1 88 4 7 3 12 -1 12 -11 0 -10 111 1 129 6
9 5 12 -2 7 -14 -8 -11 66 3 76 7 5 7 8 0 8 -12 0 -14 239 -2 258 5 6 4 12 -1
12 -13 0 -10 33 3 42 7 5 7 8 0 8 -12 0 -13 288 -2 308 5 6 4 12 0 12 -5 0 -8
20 -7 45 1 25 -2 47 -5 49 -4 3 -32 -19 -63 -47z"/>
</g>
</svg>
